<?xml version="1.0" encoding="UTF-8" standalone="no"?>
<!DOCTYPE svg PUBLIC "-//W3C//DTD SVG 1.1//EN"
 "http://www.w3.org/Graphics/SVG/1.1/DTD/svg11.dtd">
<!-- Generated by graphviz version 5.0.0 (20220707.1540)
 -->
<!-- Title: StorageDiagram Pages: 1 -->
<svg width="2052pt" height="762pt"
 viewBox="0.00 0.00 2052.29 761.60" xmlns="http://www.w3.org/2000/svg" xmlns:xlink="http://www.w3.org/1999/xlink">
<g id="graph0" class="graph" transform="scale(1 1) rotate(0) translate(4 757.6)">
<title>StorageDiagram</title>
<polygon fill="white" stroke="transparent" points="-4,4 -4,-757.6 2048.29,-757.6 2048.29,4 -4,4"/>
<!-- 6 -->
<g id="node1" class="node">
<title>6</title>
<polygon fill="#f2f2f2" stroke="black" points="0,-388.5 0,-562.1 943.74,-562.1 943.74,-388.5 0,-388.5"/>
<text text-anchor="middle" x="471.87" y="-545.5" font-family="Courier New" font-size="14.00">Store &lt;&lt;Contract&gt;&gt;</text>
<polyline fill="none" stroke="black" points="0,-537.3 943.74,-537.3 "/>
<text text-anchor="middle" x="24.8" y="-520.7" font-family="Courier New" font-size="14.00">slot</text>
<polyline fill="none" stroke="black" points="0,-512.5 49.61,-512.5 "/>
<text text-anchor="middle" x="24.8" y="-495.9" font-family="Courier New" font-size="14.00">0</text>
<polyline fill="none" stroke="black" points="0,-487.7 49.61,-487.7 "/>
<text text-anchor="middle" x="24.8" y="-471.1" font-family="Courier New" font-size="14.00">1</text>
<polyline fill="none" stroke="black" points="0,-462.9 49.61,-462.9 "/>
<text text-anchor="middle" x="24.8" y="-446.3" font-family="Courier New" font-size="14.00">2</text>
<polyline fill="none" stroke="black" points="0,-438.1 49.61,-438.1 "/>
<text text-anchor="middle" x="24.8" y="-421.5" font-family="Courier New" font-size="14.00">3</text>
<polyline fill="none" stroke="black" points="0,-413.3 49.61,-413.3 "/>
<text text-anchor="middle" x="24.8" y="-396.7" font-family="Courier New" font-size="14.00">4&#45;43</text>
<polyline fill="none" stroke="black" points="49.61,-388.5 49.61,-537.3 "/>
<text text-anchor="middle" x="496.67" y="-520.7" font-family="Courier New" font-size="14.00">type: &lt;inherited contract&gt;.variable (bytes)</text>
<polyline fill="none" stroke="black" points="49.61,-512.5 943.74,-512.5 "/>
<text text-anchor="middle" x="120.62" y="-495.9" font-family="Courier New" font-size="14.00">unallocated (8)</text>
<polyline fill="none" stroke="black" points="191.63,-487.7 191.63,-512.5 "/>
<text text-anchor="middle" x="279.44" y="-495.9" font-family="Courier New" font-size="14.00">address: admin (20)</text>
<polyline fill="none" stroke="black" points="367.25,-487.7 367.25,-512.5 "/>
<text text-anchor="middle" x="438.26" y="-495.9" font-family="Courier New" font-size="14.00">bool: flag3 (1)</text>
<polyline fill="none" stroke="black" points="509.27,-487.7 509.27,-512.5 "/>
<text text-anchor="middle" x="580.28" y="-495.9" font-family="Courier New" font-size="14.00">bool: flag2 (1)</text>
<polyline fill="none" stroke="black" points="651.29,-487.7 651.29,-512.5 "/>
<text text-anchor="middle" x="722.3" y="-495.9" font-family="Courier New" font-size="14.00">bool: flag1 (1)</text>
<polyline fill="none" stroke="black" points="793.31,-487.7 793.31,-512.5 "/>
<text text-anchor="middle" x="868.52" y="-495.9" font-family="Courier New" font-size="14.00">uint8: index (1)</text>
<polyline fill="none" stroke="black" points="49.61,-487.7 943.74,-487.7 "/>
<text text-anchor="middle" x="264.32" y="-471.1" font-family="Courier New" font-size="14.00">unallocated (12)</text>
<polyline fill="none" stroke="black" points="479.03,-462.9 479.03,-487.7 "/>
<text text-anchor="middle" x="711.04" y="-471.1" font-family="Courier New" font-size="14.00">address: admin2 (20)</text>
<polyline fill="none" stroke="black" points="49.61,-462.9 943.74,-462.9 "/>
<text text-anchor="middle" x="496.62" y="-446.3" font-family="Courier New" font-size="14.00">uint256: number (32)</text>
<polyline fill="none" stroke="black" points="49.61,-438.1 943.74,-438.1 "/>
<text text-anchor="middle" x="496.63" y="-421.5" font-family="Courier New" font-size="14.00">mapping(address=&gt;uint256): balances (32)</text>
<polyline fill="none" stroke="black" points="49.61,-413.3 943.74,-413.3 "/>
<text text-anchor="middle" x="496.33" y="-396.7" font-family="Courier New" font-size="14.00">payments[8]: topPayments (1280)</text>
</g>
<!-- 5 -->
<g id="node6" class="node">
<title>5</title>
<polygon fill="#f2f2f2" stroke="black" points="979.74,-314.5 979.74,-488.1 1281.38,-488.1 1281.38,-314.5 979.74,-314.5"/>
<text text-anchor="middle" x="1130.56" y="-471.5" font-family="Courier New" font-size="14.00">payments[8]: topPayments &lt;&lt;Array&gt;&gt;</text>
<polyline fill="none" stroke="black" points="979.74,-463.3 1281.38,-463.3 "/>
<text text-anchor="middle" x="1019.24" y="-446.7" font-family="Courier New" font-size="14.00">slot</text>
<polyline fill="none" stroke="black" points="979.74,-438.5 1058.74,-438.5 "/>
<text text-anchor="middle" x="1019.24" y="-421.9" font-family="Courier New" font-size="14.00">4&#45;8</text>
<polyline fill="none" stroke="black" points="979.74,-413.7 1058.74,-413.7 "/>
<text text-anchor="middle" x="1019.24" y="-397.1" font-family="Courier New" font-size="14.00">9&#45;14</text>
<polyline fill="none" stroke="black" points="979.74,-388.9 1058.74,-388.9 "/>
<text text-anchor="middle" x="1019.24" y="-372.3" font-family="Courier New" font-size="14.00">14&#45;34</text>
<polyline fill="none" stroke="black" points="979.74,-364.1 1058.74,-364.1 "/>
<text text-anchor="middle" x="1019.24" y="-347.5" font-family="Courier New" font-size="14.00">34&#45;39</text>
<polyline fill="none" stroke="black" points="979.74,-339.3 1058.74,-339.3 "/>
<text text-anchor="middle" x="1019.24" y="-322.7" font-family="Courier New" font-size="14.00">39&#45;44</text>
<polyline fill="none" stroke="black" points="1058.74,-314.5 1058.74,-463.3 "/>
<text text-anchor="middle" x="1169.66" y="-446.7" font-family="Courier New" font-size="14.00">type: variable (bytes)</text>
<polyline fill="none" stroke="black" points="1058.74,-438.5 1280.57,-438.5 "/>
<text text-anchor="middle" x="1169.55" y="-421.9" font-family="Courier New" font-size="14.00">payments (160)</text>
<polyline fill="none" stroke="black" points="1058.74,-413.7 1280.57,-413.7 "/>
<text text-anchor="middle" x="1169.55" y="-397.1" font-family="Courier New" font-size="14.00">payments (160)</text>
<polyline fill="none" stroke="black" points="1058.74,-388.9 1280.57,-388.9 "/>
<text text-anchor="middle" x="1169.25" y="-372.3" font-family="Courier New" font-size="14.00">&#45;&#45;&#45;&#45; (672)</text>
<polyline fill="none" stroke="black" points="1058.74,-364.1 1280.57,-364.1 "/>
<text text-anchor="middle" x="1169.55" y="-347.5" font-family="Courier New" font-size="14.00">payments (160)</text>
<polyline fill="none" stroke="black" points="1058.74,-339.3 1280.57,-339.3 "/>
<text text-anchor="middle" x="1169.55" y="-322.7" font-family="Courier New" font-size="14.00">payments (160)</text>
</g>
<!-- 6&#45;&gt;5 -->
<g id="edge1" class="edge">
<title>6:46&#45;&gt;5</title>
<path fill="none" stroke="black" d="M943.74,-401.3C952.14,-401.3 960.76,-401.3 969.46,-401.3"/>
<polygon fill="black" stroke="black" points="969.71,-404.8 979.71,-401.3 969.71,-397.8 969.71,-404.8"/>
</g>
<!-- 1 -->
<g id="node2" class="node">
<title>1</title>
<polygon fill="#f2f2f2" stroke="black" points="1317.38,-579.5 1317.38,-753.1 2044.29,-753.1 2044.29,-579.5 1317.38,-579.5"/>
<text text-anchor="middle" x="1680.83" y="-736.5" font-family="Courier New" font-size="14.00">payments &lt;&lt;Struct&gt;&gt;</text>
<polyline fill="none" stroke="black" points="1317.38,-728.3 2044.29,-728.3 "/>
<text text-anchor="middle" x="1342.18" y="-711.7" font-family="Courier New" font-size="14.00">slot</text>
<polyline fill="none" stroke="black" points="1317.38,-703.5 1366.99,-703.5 "/>
<text text-anchor="middle" x="1342.18" y="-686.9" font-family="Courier New" font-size="14.00">4</text>
<polyline fill="none" stroke="black" points="1317.38,-678.7 1366.99,-678.7 "/>
<text text-anchor="middle" x="1342.18" y="-662.1" font-family="Courier New" font-size="14.00">5</text>
<polyline fill="none" stroke="black" points="1317.38,-653.9 1366.99,-653.9 "/>
<text text-anchor="middle" x="1342.18" y="-637.3" font-family="Courier New" font-size="14.00">6</text>
<polyline fill="none" stroke="black" points="1317.38,-629.1 1366.99,-629.1 "/>
<text text-anchor="middle" x="1342.18" y="-612.5" font-family="Courier New" font-size="14.00">7</text>
<polyline fill="none" stroke="black" points="1317.38,-604.3 1366.99,-604.3 "/>
<text text-anchor="middle" x="1342.18" y="-587.7" font-family="Courier New" font-size="14.00">8</text>
<polyline fill="none" stroke="black" points="1366.99,-579.5 1366.99,-728.3 "/>
<text text-anchor="middle" x="1705.64" y="-711.7" font-family="Courier New" font-size="14.00">type: variable (bytes)</text>
<polyline fill="none" stroke="black" points="1366.99,-703.5 2044.29,-703.5 "/>
<text text-anchor="middle" x="1442.2" y="-686.9" font-family="Courier New" font-size="14.00">unallocated (10)</text>
<polyline fill="none" stroke="black" points="1517.41,-678.7 1517.41,-703.5 "/>
<text text-anchor="middle" x="1617.82" y="-686.9" font-family="Courier New" font-size="14.00">uint8: paymentType (1)</text>
<polyline fill="none" stroke="black" points="1718.24,-678.7 1718.24,-703.5 "/>
<text text-anchor="middle" x="1810.25" y="-686.9" font-family="Courier New" font-size="14.00">address: sender (20)</text>
<polyline fill="none" stroke="black" points="1902.27,-678.7 1902.27,-703.5 "/>
<text text-anchor="middle" x="1973.28" y="-686.9" font-family="Courier New" font-size="14.00">bool: valid (1)</text>
<polyline fill="none" stroke="black" points="1366.99,-678.7 2044.29,-678.7 "/>
<text text-anchor="middle" x="1469.7" y="-662.1" font-family="Courier New" font-size="14.00">unallocated (11)</text>
<polyline fill="none" stroke="black" points="1572.41,-653.9 1572.41,-678.7 "/>
<text text-anchor="middle" x="1679.82" y="-662.1" font-family="Courier New" font-size="14.00">bool: checked (1)</text>
<polyline fill="none" stroke="black" points="1787.23,-653.9 1787.23,-678.7 "/>
<text text-anchor="middle" x="1915.65" y="-662.1" font-family="Courier New" font-size="14.00">address: receiver (20)</text>
<polyline fill="none" stroke="black" points="1366.99,-653.9 2044.29,-653.9 "/>
<text text-anchor="middle" x="1705.5" y="-637.3" font-family="Courier New" font-size="14.00">uint256: amount (32)</text>
<polyline fill="none" stroke="black" points="1366.99,-629.1 2044.29,-629.1 "/>
<text text-anchor="middle" x="1705.5" y="-612.5" font-family="Courier New" font-size="14.00">uint256: finalAmount (32)</text>
<polyline fill="none" stroke="black" points="1366.99,-604.3 2044.29,-604.3 "/>
<text text-anchor="middle" x="1705.41" y="-587.7" font-family="Courier New" font-size="14.00">uint256: initialAmount (32)</text>
</g>
<!-- 2 -->
<g id="node3" class="node">
<title>2</title>
<polygon fill="#f2f2f2" stroke="black" points="1317.38,-386.5 1317.38,-560.1 2044.29,-560.1 2044.29,-386.5 1317.38,-386.5"/>
<text text-anchor="middle" x="1680.83" y="-543.5" font-family="Courier New" font-size="14.00">payments &lt;&lt;Struct&gt;&gt;</text>
<polyline fill="none" stroke="black" points="1317.38,-535.3 2044.29,-535.3 "/>
<text text-anchor="middle" x="1342.18" y="-518.7" font-family="Courier New" font-size="14.00">slot</text>
<polyline fill="none" stroke="black" points="1317.38,-510.5 1366.99,-510.5 "/>
<text text-anchor="middle" x="1342.18" y="-493.9" font-family="Courier New" font-size="14.00">9</text>
<polyline fill="none" stroke="black" points="1317.38,-485.7 1366.99,-485.7 "/>
<text text-anchor="middle" x="1342.18" y="-469.1" font-family="Courier New" font-size="14.00">10</text>
<polyline fill="none" stroke="black" points="1317.38,-460.9 1366.99,-460.9 "/>
<text text-anchor="middle" x="1342.18" y="-444.3" font-family="Courier New" font-size="14.00">11</text>
<polyline fill="none" stroke="black" points="1317.38,-436.1 1366.99,-436.1 "/>
<text text-anchor="middle" x="1342.18" y="-419.5" font-family="Courier New" font-size="14.00">12</text>
<polyline fill="none" stroke="black" points="1317.38,-411.3 1366.99,-411.3 "/>
<text text-anchor="middle" x="1342.18" y="-394.7" font-family="Courier New" font-size="14.00">13</text>
<polyline fill="none" stroke="black" points="1366.99,-386.5 1366.99,-535.3 "/>
<text text-anchor="middle" x="1705.64" y="-518.7" font-family="Courier New" font-size="14.00">type: variable (bytes)</text>
<polyline fill="none" stroke="black" points="1366.99,-510.5 2044.29,-510.5 "/>
<text text-anchor="middle" x="1442.2" y="-493.9" font-family="Courier New" font-size="14.00">unallocated (10)</text>
<polyline fill="none" stroke="black" points="1517.41,-485.7 1517.41,-510.5 "/>
<text text-anchor="middle" x="1617.82" y="-493.9" font-family="Courier New" font-size="14.00">uint8: paymentType (1)</text>
<polyline fill="none" stroke="black" points="1718.24,-485.7 1718.24,-510.5 "/>
<text text-anchor="middle" x="1810.25" y="-493.9" font-family="Courier New" font-size="14.00">address: sender (20)</text>
<polyline fill="none" stroke="black" points="1902.27,-485.7 1902.27,-510.5 "/>
<text text-anchor="middle" x="1973.28" y="-493.9" font-family="Courier New" font-size="14.00">bool: valid (1)</text>
<polyline fill="none" stroke="black" points="1366.99,-485.7 2044.29,-485.7 "/>
<text text-anchor="middle" x="1469.7" y="-469.1" font-family="Courier New" font-size="14.00">unallocated (11)</text>
<polyline fill="none" stroke="black" points="1572.41,-460.9 1572.41,-485.7 "/>
<text text-anchor="middle" x="1679.82" y="-469.1" font-family="Courier New" font-size="14.00">bool: checked (1)</text>
<polyline fill="none" stroke="black" points="1787.23,-460.9 1787.23,-485.7 "/>
<text text-anchor="middle" x="1915.65" y="-469.1" font-family="Courier New" font-size="14.00">address: receiver (20)</text>
<polyline fill="none" stroke="black" points="1366.99,-460.9 2044.29,-460.9 "/>
<text text-anchor="middle" x="1705.5" y="-444.3" font-family="Courier New" font-size="14.00">uint256: amount (32)</text>
<polyline fill="none" stroke="black" points="1366.99,-436.1 2044.29,-436.1 "/>
<text text-anchor="middle" x="1705.5" y="-419.5" font-family="Courier New" font-size="14.00">uint256: finalAmount (32)</text>
<polyline fill="none" stroke="black" points="1366.99,-411.3 2044.29,-411.3 "/>
<text text-anchor="middle" x="1705.41" y="-394.7" font-family="Courier New" font-size="14.00">uint256: initialAmount (32)</text>
</g>
<!-- 3 -->
<g id="node4" class="node">
<title>3</title>
<polygon fill="#f2f2f2" stroke="black" points="1317.38,-193.5 1317.38,-367.1 2044.29,-367.1 2044.29,-193.5 1317.38,-193.5"/>
<text text-anchor="middle" x="1680.83" y="-350.5" font-family="Courier New" font-size="14.00">payments &lt;&lt;Struct&gt;&gt;</text>
<polyline fill="none" stroke="black" points="1317.38,-342.3 2044.29,-342.3 "/>
<text text-anchor="middle" x="1342.18" y="-325.7" font-family="Courier New" font-size="14.00">slot</text>
<polyline fill="none" stroke="black" points="1317.38,-317.5 1366.99,-317.5 "/>
<text text-anchor="middle" x="1342.18" y="-300.9" font-family="Courier New" font-size="14.00">34</text>
<polyline fill="none" stroke="black" points="1317.38,-292.7 1366.99,-292.7 "/>
<text text-anchor="middle" x="1342.18" y="-276.1" font-family="Courier New" font-size="14.00">35</text>
<polyline fill="none" stroke="black" points="1317.38,-267.9 1366.99,-267.9 "/>
<text text-anchor="middle" x="1342.18" y="-251.3" font-family="Courier New" font-size="14.00">36</text>
<polyline fill="none" stroke="black" points="1317.38,-243.1 1366.99,-243.1 "/>
<text text-anchor="middle" x="1342.18" y="-226.5" font-family="Courier New" font-size="14.00">37</text>
<polyline fill="none" stroke="black" points="1317.38,-218.3 1366.99,-218.3 "/>
<text text-anchor="middle" x="1342.18" y="-201.7" font-family="Courier New" font-size="14.00">38</text>
<polyline fill="none" stroke="black" points="1366.99,-193.5 1366.99,-342.3 "/>
<text text-anchor="middle" x="1705.64" y="-325.7" font-family="Courier New" font-size="14.00">type: variable (bytes)</text>
<polyline fill="none" stroke="black" points="1366.99,-317.5 2044.29,-317.5 "/>
<text text-anchor="middle" x="1442.2" y="-300.9" font-family="Courier New" font-size="14.00">unallocated (10)</text>
<polyline fill="none" stroke="black" points="1517.41,-292.7 1517.41,-317.5 "/>
<text text-anchor="middle" x="1617.82" y="-300.9" font-family="Courier New" font-size="14.00">uint8: paymentType (1)</text>
<polyline fill="none" stroke="black" points="1718.24,-292.7 1718.24,-317.5 "/>
<text text-anchor="middle" x="1810.25" y="-300.9" font-family="Courier New" font-size="14.00">address: sender (20)</text>
<polyline fill="none" stroke="black" points="1902.27,-292.7 1902.27,-317.5 "/>
<text text-anchor="middle" x="1973.28" y="-300.9" font-family="Courier New" font-size="14.00">bool: valid (1)</text>
<polyline fill="none" stroke="black" points="1366.99,-292.7 2044.29,-292.7 "/>
<text text-anchor="middle" x="1469.7" y="-276.1" font-family="Courier New" font-size="14.00">unallocated (11)</text>
<polyline fill="none" stroke="black" points="1572.41,-267.9 1572.41,-292.7 "/>
<text text-anchor="middle" x="1679.82" y="-276.1" font-family="Courier New" font-size="14.00">bool: checked (1)</text>
<polyline fill="none" stroke="black" points="1787.23,-267.9 1787.23,-292.7 "/>
<text text-anchor="middle" x="1915.65" y="-276.1" font-family="Courier New" font-size="14.00">address: receiver (20)</text>
<polyline fill="none" stroke="black" points="1366.99,-267.9 2044.29,-267.9 "/>
<text text-anchor="middle" x="1705.5" y="-251.3" font-family="Courier New" font-size="14.00">uint256: amount (32)</text>
<polyline fill="none" stroke="black" points="1366.99,-243.1 2044.29,-243.1 "/>
<text text-anchor="middle" x="1705.5" y="-226.5" font-family="Courier New" font-size="14.00">uint256: finalAmount (32)</text>
<polyline fill="none" stroke="black" points="1366.99,-218.3 2044.29,-218.3 "/>
<text text-anchor="middle" x="1705.41" y="-201.7" font-family="Courier New" font-size="14.00">uint256: initialAmount (32)</text>
</g>
<!-- 4 -->
<g id="node5" class="node">
<title>4</title>
<polygon fill="#f2f2f2" stroke="black" points="1317.38,-0.5 1317.38,-174.1 2044.29,-174.1 2044.29,-0.5 1317.38,-0.5"/>
<text text-anchor="middle" x="1680.83" y="-157.5" font-family="Courier New" font-size="14.00">payments &lt;&lt;Struct&gt;&gt;</text>
<polyline fill="none" stroke="black" points="1317.38,-149.3 2044.29,-149.3 "/>
<text text-anchor="middle" x="1342.18" y="-132.7" font-family="Courier New" font-size="14.00">slot</text>
<polyline fill="none" stroke="black" points="1317.38,-124.5 1366.99,-124.5 "/>
<text text-anchor="middle" x="1342.18" y="-107.9" font-family="Courier New" font-size="14.00">39</text>
<polyline fill="none" stroke="black" points="1317.38,-99.7 1366.99,-99.7 "/>
<text text-anchor="middle" x="1342.18" y="-83.1" font-family="Courier New" font-size="14.00">40</text>
<polyline fill="none" stroke="black" points="1317.38,-74.9 1366.99,-74.9 "/>
<text text-anchor="middle" x="1342.18" y="-58.3" font-family="Courier New" font-size="14.00">41</text>
<polyline fill="none" stroke="black" points="1317.38,-50.1 1366.99,-50.1 "/>
<text text-anchor="middle" x="1342.18" y="-33.5" font-family="Courier New" font-size="14.00">42</text>
<polyline fill="none" stroke="black" points="1317.38,-25.3 1366.99,-25.3 "/>
<text text-anchor="middle" x="1342.18" y="-8.7" font-family="Courier New" font-size="14.00">43</text>
<polyline fill="none" stroke="black" points="1366.99,-0.5 1366.99,-149.3 "/>
<text text-anchor="middle" x="1705.64" y="-132.7" font-family="Courier New" font-size="14.00">type: variable (bytes)</text>
<polyline fill="none" stroke="black" points="1366.99,-124.5 2044.29,-124.5 "/>
<text text-anchor="middle" x="1442.2" y="-107.9" font-family="Courier New" font-size="14.00">unallocated (10)</text>
<polyline fill="none" stroke="black" points="1517.41,-99.7 1517.41,-124.5 "/>
<text text-anchor="middle" x="1617.82" y="-107.9" font-family="Courier New" font-size="14.00">uint8: paymentType (1)</text>
<polyline fill="none" stroke="black" points="1718.24,-99.7 1718.24,-124.5 "/>
<text text-anchor="middle" x="1810.25" y="-107.9" font-family="Courier New" font-size="14.00">address: sender (20)</text>
<polyline fill="none" stroke="black" points="1902.27,-99.7 1902.27,-124.5 "/>
<text text-anchor="middle" x="1973.28" y="-107.9" font-family="Courier New" font-size="14.00">bool: valid (1)</text>
<polyline fill="none" stroke="black" points="1366.99,-99.7 2044.29,-99.7 "/>
<text text-anchor="middle" x="1469.7" y="-83.1" font-family="Courier New" font-size="14.00">unallocated (11)</text>
<polyline fill="none" stroke="black" points="1572.41,-74.9 1572.41,-99.7 "/>
<text text-anchor="middle" x="1679.82" y="-83.1" font-family="Courier New" font-size="14.00">bool: checked (1)</text>
<polyline fill="none" stroke="black" points="1787.23,-74.9 1787.23,-99.7 "/>
<text text-anchor="middle" x="1915.65" y="-83.1" font-family="Courier New" font-size="14.00">address: receiver (20)</text>
<polyline fill="none" stroke="black" points="1366.99,-74.9 2044.29,-74.9 "/>
<text text-anchor="middle" x="1705.5" y="-58.3" font-family="Courier New" font-size="14.00">uint256: amount (32)</text>
<polyline fill="none" stroke="black" points="1366.99,-50.1 2044.29,-50.1 "/>
<text text-anchor="middle" x="1705.5" y="-33.5" font-family="Courier New" font-size="14.00">uint256: finalAmount (32)</text>
<polyline fill="none" stroke="black" points="1366.99,-25.3 2044.29,-25.3 "/>
<text text-anchor="middle" x="1705.41" y="-8.7" font-family="Courier New" font-size="14.00">uint256: initialAmount (32)</text>
</g>
<!-- 5&#45;&gt;1 -->
<g id="edge2" class="edge">
<title>5:17&#45;&gt;1</title>
<path fill="none" stroke="black" d="M1281.38,-426.3C1346.92,-426.3 1271.38,-522.61 1317.38,-569.3 1318.45,-570.39 1319.54,-571.46 1320.63,-572.53"/>
<polygon fill="black" stroke="black" points="1318.29,-575.13 1327.99,-579.38 1323.06,-570.01 1318.29,-575.13"/>
</g>
<!-- 5&#45;&gt;2 -->
<g id="edge3" class="edge">
<title>5:18&#45;&gt;2</title>
<path fill="none" stroke="black" d="M1281.38,-401.3C1289.84,-401.3 1298.39,-401.46 1307,-401.76"/>
<polygon fill="black" stroke="black" points="1306.99,-405.27 1317.13,-402.18 1307.28,-398.27 1306.99,-405.27"/>
</g>
<!-- 5&#45;&gt;3 -->
<g id="edge4" class="edge">
<title>5:20&#45;&gt;3</title>
<path fill="none" stroke="black" d="M1281.38,-351.3C1289.84,-351.3 1298.39,-351.14 1306.99,-350.84"/>
<polygon fill="black" stroke="black" points="1307.27,-354.34 1317.12,-350.43 1306.98,-347.34 1307.27,-354.34"/>
</g>
<!-- 5&#45;&gt;4 -->
<g id="edge5" class="edge">
<title>5:21&#45;&gt;4</title>
<path fill="none" stroke="black" d="M1281.38,-327.3C1346.92,-327.3 1271.38,-230.99 1317.38,-184.3 1318.45,-183.21 1319.54,-182.14 1320.63,-181.07"/>
<polygon fill="black" stroke="black" points="1323.06,-183.59 1327.99,-174.22 1318.29,-178.47 1323.06,-183.59"/>
</g>
</g>
</svg>
